<?xml version="1.0" encoding="UTF-8" standalone="no"?>
<!-- Created with Inkscape (http://www.inkscape.org/) -->

<svg
   xmlns:dc="http://purl.org/dc/elements/1.1/"
   xmlns:cc="http://creativecommons.org/ns#"
   xmlns:rdf="http://www.w3.org/1999/02/22-rdf-syntax-ns#"
   xmlns:svg="http://www.w3.org/2000/svg"
   xmlns="http://www.w3.org/2000/svg"
   xmlns:sodipodi="http://sodipodi.sourceforge.net/DTD/sodipodi-0.dtd"
   xmlns:inkscape="http://www.inkscape.org/namespaces/inkscape"
   width="744.09448"
   height="1052.3622"
   id="svg2985"
   version="1.1"
   inkscape:version="0.48.4 r9939"
   sodipodi:docname="sprites.svg">
  <defs
     id="defs2987">
    <inkscape:path-effect
       effect="skeletal"
       id="path-effect3892"
       is_visible="true"
       pattern="m 18.368009,0.00831427 c -0.75591,-0.026 -1.26582,0.01 -1.65625,0.0937 -0.39043,0.084 -0.74054,0.25986 -0.875,0.59375 -0.13446,0.33389003 -0.0479,0.59563003 0,0.78125003 0.0479,0.18562 0.0682,0.33893 0.0625,0.40625 -0.008,0.0898 -0.11312,0.44613 -0.1875,0.78125 -1.56885,0.28419 -3.08947,0.76243 -4.46875,1.46875 -0.20654,-0.21233 -0.34348,-0.48191 -0.71875,-0.5 -0.6057002,-0.0292 -1.2647402,0.25364 -2.2500002,0.96875 -0.98712,0.71645 -1.4839,1.2616 -1.5625,1.875 -0.0393,0.3067 0.0758,0.58209 0.21875,0.78125 0.0295,0.0412 0.0626,0.0582 0.0937,0.0937 -0.74424,0.77381 -1.45226,1.59101 -2.03125,2.5 -0.25211,0.015 -0.50111,0.0209 -0.59375,0 -0.15778,-0.0357 -0.39114,-0.15234 -0.65625,-0.3125 -0.13256,-0.0801 -0.27006,-0.17029 -0.46875,-0.21875 -0.19869,-0.0485 -0.46698,-0.0501 -0.6875,0.0625 -0.44104,0.22523 -0.68294,0.6612997 -0.96875,1.4062497 -0.28581,0.74495 -0.60014,1.83566 -0.96874996,3.46875 -0.36863,1.63317 -0.56345,2.76537 -0.625,3.5625 -0.0616,0.79713 -0.0186,1.29388 0.28125,1.6875 0.1499,0.19681 0.39342,0.33168 0.59375,0.375 0.20032996,0.0433 0.37654996,0.0457 0.53124996,0.0312 0.3094,-0.029 0.52871,-0.0671 0.6875,-0.0312 0.0583,0.0132 0.27162,0.11251 0.4375,0.1875 0.11959,1.20744 0.41161,2.3569 0.78125,3.46875 -0.0501,0.006 -0.0493,0.0238 -0.125,0.0312 -0.0938,0.009 -0.20334,0.004 -0.34375,0.0625 -0.14041,0.0585 -0.31875,0.20415 -0.40625,0.375 -0.17501,0.3417 -0.0937,0.64966 0.0312,1.09375 0.125,0.44409 0.33637,1.05812 0.71875,1.90625 0.38232,0.84803 0.68735,1.39156 0.9375,1.78125 0.25015,0.38969 0.44684,0.64775 0.8125,0.75 0.18283,0.0511 0.3916,0.0322 0.53125,-0.0312 0.13965,-0.0635 0.24193,-0.15522 0.3125,-0.21875 0.14114,-0.12706 0.22403,-0.1758 0.25,-0.1875 0.0175,-0.008 0.21141,-0.0616 0.34375,-0.0937 0.94363,1.0967 2.00998,2.06272 3.21875,2.875 -0.009,0.25422 -0.0915,0.50409 0.0937,0.75 0.3011702,0.39977 0.8232002,0.69041 1.6875002,1 0.60021,0.215 1.02389,0.3196 1.40625,0.3125 0.20423,-0.004 0.3335,-0.14434 0.5,-0.21875 0.89269,0.31041 1.8234,0.53656 2.78125,0.6875 0.14524,0.34498 0.30573,0.72921 0.3125,0.78125 0.0108,0.0826 -0.0186,0.26388 -0.0625,0.5 -0.022,0.11806 -0.0522,0.23295 -0.0312,0.40625 0.0209,0.1733 0.1246,0.3854 0.28125,0.53125 0.3133,0.2917 0.711,0.36434 1.3125,0.375 0.6015,0.0107 1.43014,-0.0589 2.65625,-0.21875 1.22596,-0.15988 2.0459,-0.30517 2.625,-0.46875 0.5791,-0.16358 0.95701,-0.32813 1.1875,-0.6875 0.11525,-0.17969 0.14814,-0.38918 0.125,-0.5625 -0.0231,-0.17332 -0.0739,-0.3291 -0.125,-0.4375 -0.10217,-0.21679 -0.17665,-0.35411 -0.1875,-0.4375 -0.0114,-0.088 -0.005,-0.3581 0,-0.59375 0.4858,-0.17905 0.9733,-0.36905 1.4375,-0.59375 0.14017,0.0198 0.25965,0.0968 0.40625,0.0625 0.28079,-0.0657 0.57264,-0.2249 0.9375,-0.46875 0.34269,-0.22904 0.44487,-0.43976 0.59375,-0.65625 0.0223,-0.0324 0.0751,-0.0613 0.0937,-0.0937 l 0.0312,0.0312 c -4e-5,3e-5 0.0938,-0.0938 0.0937,-0.0937 0.007,-0.005 0.0243,0.005 0.0312,0 0.40717,-0.29088 0.74845,-0.60204 1.09375,-0.90625 -0.0185,-0.0153 0.019,0.0375 0.0937,0.15625 0.0374,0.0594 0.0845,0.13227 0.1875,0.21875 0.10297,0.0865 0.26912,0.15949 0.4375,0.15625 0.33677,-0.006 0.53671,-0.15185 0.78125,-0.375 0.24454,-0.22315 0.52729,-0.56589 0.9375,-1.0625 0.41014,-0.49653 0.67072,-0.84324 0.84375,-1.125 0.17303,-0.28176 0.30674,-0.51137 0.25,-0.84375 -0.0284,-0.16619 -0.11416,-0.32154 -0.21875,-0.40625 -0.0906,-0.0734 -0.18828,-0.0694 -0.25,-0.0937 0.31221,-0.46278 0.61178,-0.91417 0.875,-1.40625 0.10485,-0.0687 0.22886,-0.0884 0.3125,-0.1875 0.1712,-0.20277 0.33664,-0.45036 0.5,-0.8125 0.16822,-0.37291 0.25442,-0.66797 0.28125,-0.9375 0.0111,-0.11118 -0.0692,-0.20008 -0.0937,-0.3125 0.047,-0.1301 0.0763,-0.26547 0.125,-0.40625 0.79355,-0.34305 1.30072,0.13949 1.9375,0.0312 0.20794,-0.0354 0.41673,-0.0701 0.59375,-0.21875 0.35404,-0.29727 0.49067,-0.73923 0.59375,-1.4375 0.10308,-0.69827 0.15625,-1.69194 0.15625,-3.15625 0,-1.46431 -0.0531,-2.46054 -0.15625,-3.15625 -0.10316,-0.69571 -0.23422,-1.14376 -0.59375,-1.4375 -0.17976,-0.14687 -0.4038,-0.19129 -0.59375,-0.1875 -0.18995,0.004 -0.33743,0.0501 -0.46875,0.0937 -0.47758,0.22302 -1.15473,0.51525 -1.375,0.0312 -0.57466,-1.97685 -1.51874,-3.78894 -2.75,-5.3749997 0.20143,-0.16414 0.41421,-0.26383 0.46875,-0.65625 0.0862,-0.62049 -0.27292,-1.25558 -1.1875,-2.125 -0.45064,-0.42839 -0.81901,-0.67942 -1.15625,-0.84375 -0.33724,-0.16433 -0.66641,-0.2338 -0.96875,-0.125 -0.26885,0.0967 -0.42057,0.2985 -0.53125,0.46875 -1.28732,-0.91921 -2.7148,-1.64381 -4.25,-2.15625 -0.0615,-0.30271 -0.12808,-0.65119 -0.125,-0.6875 0.007,-0.0771 0.0631,-0.22251 0.15625,-0.4375 0.0466,-0.10749 0.10651,-0.23486 0.125,-0.40625 0.0185,-0.17139 -0.004,-0.38699 -0.125,-0.5625 -0.24143,-0.35103003 -0.61398,-0.49067003 -1.1875,-0.62500003 -0.57352,-0.13433 -1.41566,-0.24143 -2.625,-0.34375 -0.58954,-0.0499 -1.0773,-0.10939 -1.53125,-0.125 z m -0.0625,1.00000003 c 0.38703,0.0133 0.92347,0.0736 1.53125,0.125 1.18529,0.10028 1.95284,0.19899 2.4375,0.3125 0.43146,0.10106 0.5257,0.1962 0.53125,0.1875 -0.007,0.0202 0.0152,0.0275 0,0.0625 -0.0645,0.14891 -0.21964,0.39234 -0.25,0.75 -0.0407,0.47936 0.12553,0.8422 0.1875,1.1875 l 0.0625,0.28125 0.28125,0.0937 c 1.70939,0.53167 3.29117,1.40117 4.6875,2.46875 l 0.46875,0.34375 0.28125,-0.5 c 0.0849,-0.15988 0.13612,-0.31952 0.1875,-0.40625 0.0514,-0.0867 0.0716,-0.097 0.0625,-0.0937 -0.009,0.003 0.0302,-0.0294 0.21875,0.0625 0.18854,0.0919 0.49929,0.33187 0.90625,0.71875 0.82556,0.78478 0.91669,1.17486 0.90625,1.25 -0.0104,0.0751 -0.14992,0.15066 -0.40625,0.34375 l -0.40625,0.3125 0.34375,0.40625 c 1.34239,1.6412297 2.21826,3.2613997 2.77998,5.3718297 0.29022,0.72266 -0.2662,0.24111 -1.14603,0.11282 1.59094,0.99964 2.78571,0.33418 3.7723,0.51525 0.22575,0.15709 0.30107,0.59838 0.34375,0.75005 0.0897,0.60468 0.15625,1.56016 0.15625,3 0,1.43984 -0.0665,2.39202 -0.15625,3 -0.0897,0.60798 -0.0324,0.60284 -0.21875,0.8125 -0.51572,0.58026 -1.84228,0.10459 -2.47607,0.1144 -0.44219,0.007 -0.79735,0.34446 -1.32633,0.66802 1.2847,-0.53751 1.14274,-0.63581 0.8024,0.34265 l -0.125,0.28125 0.1875,0.1875 c -0.009,0.0855 -0.0749,0.27488 -0.21875,0.59375 -0.14131,0.31326 -0.23792,0.50542 -0.3125,0.59375 -0.0746,0.0883 -0.0983,0.0684 -0.0625,0.0625 l -0.21875,0.0625 -0.125,0.1875 c -0.32334,0.6083 -0.69464,1.22723 -1.09375,1.78125 l -0.50286,0.67552 c 0.16365,-0.1712 0.32921,-0.32317 0.53411,-0.0818 0.074,0.0882 0.13823,0.15221 0.21875,0.21875 0.10063,0.0832 0.14077,0.0925 0.21875,0.125 -0.0146,0.034 5.2e-4,-0.0205 -0.0312,0.0312 -0.12709,0.20696 -0.35452,0.55245 -0.75,1.03125 -0.39542,0.4787 -0.69568,0.77386 -0.875,0.9375 -0.0502,0.0458 7.7e-4,0.0103 -0.0312,0.0312 -0.0464,-0.0691 -0.0585,-0.10672 -0.15625,-0.1875 -0.18785,-0.15525 -0.34117,-0.21917 -0.5,-0.28125 l -0.15625,-0.0312 0.38774,-0.44784 c -0.14412,0.16623 -0.48781,0.34319 -0.63764,0.47904 -4.7e-4,2.1e-4 -0.12463,0.0934 -0.125,0.0937 -0.44324,0.3828 -0.85182,0.75876 -1.28125,1.0625 -0.006,0.004 -0.025,-0.004 -0.0312,0 -1.1e-4,4e-5 -0.0604,0.044 -0.0937,0.0625 l -0.0625,0.0625 -0.0312,0.0312 -0.0312,0 c -3e-5,3e-5 -0.0625,0.15621 -0.0625,0.15625 -0.008,0.0233 -0.1011,0.20214 -0.5,0.46875 -0.30551,0.20419 -0.49614,0.28967 -0.59375,0.3125 -0.0976,0.0228 -0.0803,-0.0107 -0.0625,0 l -0.21875,-0.125 -0.25,0.125 c -0.56245,0.27693 -1.14656,0.51101 -1.75,0.71875 l -0.34375,0.125 0,0.34375 c 0.007,0.32315 -0.047,0.66987 0,1.03125 0.0465,0.35739 0.21161,0.60223 0.28125,0.75 0.0164,0.0348 -0.007,0.0423 0,0.0625 -0.0114,-0.001 -0.0928,0.0949 -0.53125,0.21875 -0.49171,0.1389 -1.29811,0.28076 -2.5,0.4375 -1.20174,0.15673 -2.02162,0.22778 -2.53125,0.21875 -0.48471,-0.009 -0.60818,-0.11286 -0.59375,-0.0937 0.002,-0.0209 -0.006,-0.0301 0,-0.0625 0.0302,-0.16227 0.14037,-0.42307 0.0937,-0.78125 -0.0712,-0.54703 -0.38048,-0.89411 -0.5,-1.25 l -0.0937,-0.28125 -0.3125,-0.0625 c -1.02361,-0.14171 -2.01913,-0.38229 -2.96875,-0.71875 l -0.3125,-0.125 -0.21875,0.28125 c -1.8e-4,2.1e-4 0.002,0.0277 -0.1875,0.0312 -0.18984,0.004 -0.5612,-0.0592 -1.09375,-0.25 -0.77397,-0.27724 -1.08986,-0.55789 -1.1875,-0.6875 -0.0976,-0.12961 -0.0797,-0.0996 -0.0312,-0.21875 l 0.15625,-0.375 -0.34375,-0.21875 c -1.2791302,-0.83801 -2.4317402,-1.88168 -3.4062502,-3.0625 l -0.21875,-0.28125 -0.3125,0.125 c -0.19526,0.0617 -0.44999,0.0523 -0.75,0.1875 -0.23997,0.10811 -0.3486,0.25595 -0.4375,0.34375 -0.012,-0.0182 -0.04,-0.0202 -0.1875,-0.25 -0.20067,-0.31261 -0.47153,-0.86187 -0.84375,-1.6875 -0.37218,-0.82552 -0.58778,-1.36446 -0.6875,-1.71875 -0.0762,-0.27069 -0.0539,-0.30526 -0.0625,-0.3125 0.12838,-0.007 0.32261,0.0143 0.5625,-0.0937 0.22265,-0.10028 0.2491,-0.18679 0.25,-0.1875 l 0.28125,-0.25 -0.125,-0.3125 c -0.46265,-1.27234 -0.76922,-2.63134 -0.875,-4.03125 -0.0465,-1.0457 0.19037,-2.25164 0.29979,-2.82968 -0.59966,0.51851 -0.35531,2.49984 -1.42474,2.04843 -0.42989,-0.0972 -0.79646,0.009 -1.03125,0.0312 -0.10272,0.01 -0.18486,0.004 -0.21875,0 -0.009,-0.0124 -0.14832996,-0.29317 -0.0937,-1 0.0546,-0.70683 0.26167,-1.79657 0.625,-3.40625 0.36335,-1.60977 0.65284,-2.68323 0.90625,-3.34375 0.25341,-0.66052 0.48995,-0.86987 0.5,-0.875 0.032,0.0108 0.0985,0.04 0.1875,0.0937 0.20247,0.12232 0.47535,0.37137 0.90625,0.46875 0.88661,0.82725 0.18485,2.07958 0.0489,3.66217 0.431,-1.63505 1.05139,-3.27351 1.48239,-3.91212 0.66371,-1.0869197 1.43805,-2.0856997 2.34375,-2.9687497 l 0.4375,-0.40625 -0.5,-0.34375 c -0.11059,-0.0812 -0.1837,-0.16991 -0.21875,-0.21875 -0.035,-0.0488 -0.0372,-0.0161 -0.0312,-0.0625 0.0119,-0.0927 0.22354,-0.53322 1.125,-1.1875 0.90327,-0.65561 1.4599302,-0.79071 1.6562502,-0.78125 0.19632,0.009 0.203,0.0421 0.3125,0.25 l 0.21875,0.46875 0.46875,-0.25 c 1.45852,-0.77868 3.01832,-1.29584 4.71875,-1.5625 l 0.40625,-0.0625 0.0312,-0.375 c 0.0356,-0.32586 0.2115,-0.70267 0.25,-1.15625 0.0266,-0.31306 -0.0511,-0.55356 -0.0937,-0.71875 -0.0426,-0.16519 -0.0364,-0.22102 -0.0625,-0.15625 -0.0261,0.0648 -0.0825,0.0513 0.15625,0 0.23871,-0.0513 0.69046,-0.0871 1.40625,-0.0625 z"
       copytype="single_stretched"
       prop_scale="1"
       scale_y_rel="false"
       spacing="0"
       normal_offset="0"
       tang_offset="0"
       prop_units="false"
       vertical_pattern="false"
       fuse_tolerance="0" />
    <filter
       inkscape:collect="always"
       id="filter3791"
       x="-0.24767572"
       width="1.4953514"
       y="-0.26658951"
       height="1.533179">
      <feGaussianBlur
         inkscape:collect="always"
         stdDeviation="0.44227866"
         id="feGaussianBlur3793" />
    </filter>
    <mask
       maskUnits="userSpaceOnUse"
       id="mask3809">
      <path
         sodipodi:nodetypes="szsss"
         inkscape:connector-curvature="0"
         id="path3811"
         d="m -878.97323,692.00507 c 0,0.81363 -0.0571,1.47321 -2.14286,1.47321 -2.08573,0 -2.14286,-0.65958 -2.14286,-1.47321 0,-0.81364 0.95939,-2.50845 2.14286,-2.50845 1.18347,0 2.14286,1.69481 2.14286,2.50845 z"
         style="color:#000000;fill:#abf2fc;fill-opacity:0.98823529;fill-rule:evenodd;stroke:none;stroke-width:1;marker:none;visibility:visible;display:inline;overflow:visible;enable-background:accumulate" />
    </mask>
  </defs>
  <sodipodi:namedview
     id="base"
     pagecolor="#ffffff"
     bordercolor="#ffffff"
     borderopacity="0.0"
     inkscape:pageopacity="0.0"
     inkscape:pageshadow="0"
     inkscape:zoom="5.6"
     inkscape:cx="-841.62338"
     inkscape:cy="375.76249"
     inkscape:document-units="px"
     inkscape:current-layer="layer1"
     showgrid="false"
     showborder="false"
     inkscape:showpageshadow="false" />
  <metadata
     id="metadata2990">
    <rdf:RDF>
      <cc:Work
         rdf:about="">
        <dc:format>image/svg+xml</dc:format>
        <dc:type
           rdf:resource="http://purl.org/dc/dcmitype/StillImage" />
        <dc:title></dc:title>
      </cc:Work>
    </rdf:RDF>
  </metadata>
  <g
     inkscape:label="Layer 1"
     inkscape:groupmode="layer"
     id="layer1"
     transform="translate(0,2.172441e-5)">
    <path
       transform="matrix(0.08243817,0.02197768,-0.02208924,0.08202182,-790.50211,649.03296)"
       style="color:#000000;fill:#87aade;stroke:none;stroke-width:11.74667358000000000;stroke-linecap:square;stroke-linejoin:round;stroke-miterlimit:4;stroke-opacity:1;stroke-dashoffset:0;marker:none;visibility:visible;display:inline;overflow:visible;enable-background:accumulate"
       d="m -829.49197,684.71133 c 18.04809,18.04809 118.70816,62.17971 112.10211,86.83385 l -140.5002,19.14927 -131.25137,53.66634 c -18.04807,-18.04808 47.06029,-106.59723 53.66634,-131.25137 6.60606,-24.65414 -5.50487,-133.89414 19.14927,-140.50019 24.65414,-6.60606 68.78576,94.05402 86.83385,112.1021 z"
       id="path2984"
       inkscape:connector-curvature="0"
       sodipodi:nodetypes="scccsss"
       inkscape:export-filename="C:\Users\KHR\Copy\code\MonthlyGames\2014\June\Asteroids\Assets\Sprites\sheet.png"
       inkscape:export-xdpi="626.96002"
       inkscape:export-ydpi="626.96002" />
    <path
       sodipodi:nodetypes="scccsas"
       inkscape:connector-curvature="0"
       id="path4015"
       d="m -853.62599,723.25906 c 67.68263,57.42399 142.84218,23.63198 136.23613,48.28612 l -140.5002,19.14927 -131.25137,53.66634 c -18.04807,-18.04808 64.67636,-27.64953 93.84087,-109.93507 2.43539,-6.87127 14.62874,-0.68367 21.64631,-2.56402 7.01757,-1.88035 14.46942,-13.31893 20.02826,-8.60264 z"
       style="color:#000000;fill:#5f8dd3;fill-opacity:1;stroke:none;stroke-width:11.74667358;marker:none;visibility:visible;display:inline;overflow:visible;enable-background:accumulate"
       transform="matrix(0.08243817,0.02197768,-0.02208924,0.08202182,-790.50211,649.03296)"
       inkscape:export-filename="C:\Users\KHR\Copy\code\MonthlyGames\2014\June\Asteroids\Assets\Sprites\sheet.png"
       inkscape:export-xdpi="626.96002"
       inkscape:export-ydpi="626.96002" />
    <path
       sodipodi:nodetypes="szsss"
       inkscape:connector-curvature="0"
       id="path4013"
       d="m -876.78327,683.37621 c 0,1.92772 -0.0513,3.49044 -1.9221,3.49044 -1.87085,0 -1.92209,-1.56272 -1.92209,-3.49044 0,-1.92773 0.86054,-5.94321 1.92209,-5.94321 1.06155,0 1.9221,4.01548 1.9221,5.94321 z"
       style="color:#000000;fill:#5f8dd3;fill-opacity:1;fill-rule:evenodd;stroke:none;stroke-width:0.20000000000000001;marker:none;visibility:visible;display:inline;overflow:visible;enable-background:accumulate"
       inkscape:export-filename="C:\Users\KHR\Copy\code\MonthlyGames\2014\June\Asteroids\Assets\Sprites\sheet.png"
       inkscape:export-xdpi="626.96002"
       inkscape:export-ydpi="626.96002" />
    <path
       transform="matrix(0.79166666,0,0,2.2424243,-181.15514,-868.64787)"
       style="color:#000000;fill:#8df3ff;fill-opacity:1;fill-rule:evenodd;stroke:#000000;stroke-width:0.15010665;marker:none;visibility:visible;display:inline;overflow:visible;enable-background:accumulate;stroke-opacity:0.98823529000000021;stroke-miterlimit:4;stroke-dasharray:none"
       d="m -878.97323,692.00507 c 0,0.81363 -0.0571,1.47321 -2.14286,1.47321 -2.08573,0 -2.14286,-0.65958 -2.14286,-1.47321 0,-0.81364 0.95939,-2.50845 2.14286,-2.50845 1.18347,0 2.14286,1.69481 2.14286,2.50845 z"
       id="path3754"
       inkscape:connector-curvature="0"
       sodipodi:nodetypes="szsss"
       inkscape:export-filename="C:\Users\KHR\Copy\code\MonthlyGames\2014\June\Asteroids\Assets\Sprites\sheet.png"
       inkscape:export-xdpi="626.96002"
       inkscape:export-ydpi="626.96002" />
    <path
       transform="matrix(0.99557359,0.09398527,-0.33987847,3.6002879,230.65881,-1710.5909)"
       style="color:#000000;fill:#ffffff;fill-opacity:1;fill-rule:evenodd;stroke:none;stroke-width:1;marker:none;visibility:visible;display:inline;overflow:visible;enable-background:accumulate"
       d="m -880.1469,687.58162 c 0,0.24655 -0.0611,0.49233 -0.25489,0.4502 -0.31151,-0.0677 -0.44643,-0.29204 -0.44643,-0.44643 0,-0.15439 -0.0139,-0.51748 0.44643,-0.44643 0.21528,0.0332 0.25489,0.1961 0.25489,0.44266 z"
       id="path3757"
       inkscape:connector-curvature="0"
       sodipodi:nodetypes="ssass"
       inkscape:export-filename="C:\Users\KHR\Copy\code\MonthlyGames\2014\June\Asteroids\Assets\Sprites\sheet.png"
       inkscape:export-xdpi="626.96002"
       inkscape:export-ydpi="626.96002" />
    <path
       transform="matrix(0.96568542,0,0,0.96568542,-29.035727,15.639975)"
       style="color:#000000;fill:#ffffff;fill-opacity:1;fill-rule:evenodd;stroke:none;stroke-width:1;marker:none;visibility:visible;display:inline;overflow:visible;enable-background:accumulate"
       d="m -880.28226,687.5527 c 0.006,0.26526 -0.0691,0.44643 -0.31566,0.44643 -0.24656,0 -0.2503,-0.16719 -0.2503,-0.41374 0,-0.24656 0.16718,-0.77332 0.41374,-0.77332 0.24655,0 0.14528,0.44615 0.15222,0.74063 z"
       id="path3759"
       inkscape:connector-curvature="0"
       sodipodi:nodetypes="sssss"
       inkscape:export-filename="C:\Users\KHR\Copy\code\MonthlyGames\2014\June\Asteroids\Assets\Sprites\sheet.png"
       inkscape:export-xdpi="626.96002"
       inkscape:export-ydpi="626.96002" />
    <path
       style="color:#000000;fill:#cccccc;fill-opacity:0.98823529;fill-rule:evenodd;stroke:none;stroke-width:0.2;marker:none;visibility:visible;display:inline;overflow:visible;enable-background:accumulate"
       d="m -839.25052,667.87279 c -0.26184,0.0136 -0.5453,-0.004 -0.78683,0.0991 0.009,0.36473 0.12948,0.73562 0.0431,1.10559 -0.0462,0.35203 -0.1355,0.84799 0.24985,1.04704 0.20674,0.11345 0.44395,0.15104 0.67383,0.18694 -1.07529,0.0299 -2.15102,0.1391 -3.18638,0.44643 -1.76364,0.48251 -3.44368,1.28944 -4.91496,2.37434 -1.28954,1.01679 -2.49659,2.14683 -3.42632,3.50764 -0.80086,1.09631 -1.31435,2.36646 -1.70476,3.65903 0.0925,-0.66979 0.31363,-1.38663 0.0795,-2.05078 -0.12007,-0.33896 -0.4009,-0.58508 -0.74219,-0.67941 -0.27373,-0.0989 -0.49008,-0.3752 -0.78125,-0.40039 -0.29348,0.22323 -0.38806,0.6241 -0.54405,0.94635 -0.4839,1.28756 -0.73356,2.64876 -1.04863,3.98481 -0.2257,1.18376 -0.58413,2.37664 -0.44834,3.59284 -0.0198,0.36618 0.3555,0.21133 0.57897,0.19671 0.43492,-0.0563 0.87565,0.0262 1.3066,0.0412 0.50258,-0.40913 0.49775,-1.13165 0.74418,-1.69022 0.0813,-0.21266 -0.0521,0.35555 -0.0482,0.43566 -0.3642,2.01347 0.054,4.08433 0.75133,5.97617 0.15283,0.22258 0.41746,-0.0528 0.56501,-0.14788 0.10767,-0.0868 0.30327,-0.24309 0.11161,-0.0377 -0.28377,0.33558 -0.63978,0.6074 -1.00691,0.83556 -0.0286,0.21473 0.25473,0.36325 0.35347,0.55295 0.66418,0.88605 1.13656,1.92631 1.3482,3.01579 0.10092,0.2807 0.42194,0.0298 0.60812,-0.001 0.2656,-0.0922 0.60554,-0.18651 0.84974,-0.17458 -0.20309,0.0159 -0.44886,0.21587 -0.27483,0.41992 0.82901,1.05597 1.85785,1.94234 2.9269,2.74833 0.24441,0.18059 0.51209,0.34407 0.74777,0.52734 -0.0697,0.19952 -0.27638,0.46436 -0.0321,0.62919 0.49302,0.4784 1.18162,0.68686 1.82757,0.86495 0.22929,0.0283 0.49451,0.1206 0.70731,0.0293 0.0845,-0.12598 0.15717,-0.34085 0.33621,-0.1981 1.50047,0.52893 3.08736,0.77641 4.67495,0.82449 -0.38686,0.0633 -0.80197,0.0493 -1.17048,0.17858 -0.0677,0.23029 0.1687,0.44573 0.22541,0.66576 0.25,0.44467 0.20072,0.96435 0.11778,1.44501 0.0851,0.19508 0.37795,0.1372 0.5566,0.17357 1.48792,-0.0135 2.96795,-0.24732 4.43503,-0.48886 0.41587,-0.10337 0.88038,-0.14261 1.24581,-0.37807 0.12729,-0.26198 -0.15545,-0.51659 -0.18973,-0.77707 -0.0761,-0.38764 0.0285,-0.80045 -0.06,-1.17885 -0.36788,-0.064 -0.75773,-0.0172 -1.1342,-0.0391 1.1724,-0.25504 2.33408,-0.57899 3.40262,-1.12723 0.14535,0.006 0.29408,0.13152 0.44643,0.0377 0.42083,-0.21133 0.88495,-0.47894 1.10212,-0.9082 0.62312,-0.4393 1.18582,-0.9556 1.7899,-1.4216 0.11791,0.19136 0.42298,0.20916 0.59436,0.37472 0.16878,0.21744 0.40041,0.22363 0.53508,-0.0327 0.52383,-0.55781 1.05939,-1.13021 1.44031,-1.79705 0.0172,-0.18756 -0.23938,-0.21655 -0.32924,-0.35715 -0.11474,-0.0838 -0.21061,-0.21593 -0.35435,-0.24832 0.52264,-0.69048 0.94849,-1.45785 1.40067,-2.18611 0.10537,-0.16352 0.33686,-0.16708 0.41155,-0.36551 0.20144,-0.35849 0.39348,-0.74498 0.47851,-1.14118 -0.28765,-0.16943 -0.0363,-0.43398 0.0279,-0.66825 0.0313,-0.17448 0.25641,-0.45761 0.0432,-0.58873 -0.18525,0.0164 0.0559,-0.0599 0.11998,-0.0725 0.47605,-0.0647 0.95102,0.0138 1.38905,0.20245 0.12921,0.0589 0.48307,0.13856 0.40643,-0.12014 -0.79334,-1.53715 -0.85765,-3.3271 -0.78822,-5.02651 0.0589,-0.94174 0.23601,-1.90721 0.67382,-2.75809 0.14737,-0.14198 0.25449,-0.49203 -0.0279,-0.53851 -0.32395,0.0278 -0.56093,0.32225 -0.89425,0.34738 -0.50102,0.11541 -1.03727,0.0548 -1.48577,-0.20647 0.23297,0.0335 0.4963,0.20755 0.72684,0.0935 0.12902,-0.23862 -0.0628,-0.52627 -0.0991,-0.77149 -0.46507,-1.52641 -1.13128,-3.0029 -2.1104,-4.27028 -0.40634,-0.56188 -0.83857,-1.10594 -1.25595,-1.66024 0.24822,0.0586 0.49775,0.30869 0.75753,0.21066 0.2046,-0.11036 0.48073,-0.32997 0.31948,-0.58733 -0.37425,-0.69298 -0.99541,-1.22488 -1.61552,-1.69225 -0.14989,-0.1232 -0.43348,-0.26545 -0.54547,-0.0251 -0.11949,0.19969 -0.27294,0.43596 -0.0927,0.65143 0.0976,0.2171 0.19374,0.43036 0.28657,0.6474 -1.2497,-0.96753 -2.52748,-1.94004 -3.98577,-2.57813 -0.85971,-0.41097 -1.75869,-0.74802 -2.70871,-0.87365 -0.34262,-0.05 -0.008,-0.0218 0.13896,-0.0597 0.39677,-0.0801 0.50732,-0.56383 0.40178,-0.90541 -0.0887,-0.36074 0.0105,-0.71866 0.15625,-1.04772 0.0338,-0.28435 -0.34405,-0.29187 -0.53292,-0.35993 -1.52849,-0.2882 -3.08913,-0.39871 -4.64286,-0.43945 -0.0484,4.6e-4 -0.0967,9.3e-4 -0.14509,0.001 z"
       id="path3963"
       inkscape:connector-curvature="0"
       transform="translate(0,-2.172441e-5)"
       inkscape:export-filename="C:\Users\KHR\Copy\code\MonthlyGames\2014\June\Asteroids\Assets\Sprites\sheet.png"
       inkscape:export-xdpi="626.96002"
       inkscape:export-ydpi="626.96002" />
    <path
       sodipodi:nodetypes="aca"
       inkscape:connector-curvature="0"
       id="path3999"
       d="m -829.85583,675.36828 c 0,0 0.98247,-2.80985 2.11559,-2.76393 2.19913,0.47804 -2.11559,2.76393 -2.11559,2.76393 z"
       style="color:#000000;fill:#f2f2f2;fill-opacity:1;fill-rule:evenodd;stroke:none;stroke-width:0.20000000000000001;marker:none;visibility:visible;display:inline;overflow:visible;enable-background:accumulate"
       inkscape:export-filename="C:\Users\KHR\Copy\code\MonthlyGames\2014\June\Asteroids\Assets\Sprites\sheet.png"
       inkscape:export-xdpi="626.96002"
       inkscape:export-ydpi="626.96002" />
    <path
       transform="matrix(7.9444447,0,0,3.9782608,5894.7918,-2089.5632)"
       style="color:#000000;fill:#999999;fill-opacity:1;fill-rule:evenodd;stroke:none;stroke-width:0.20000000000000001;marker:none;visibility:visible;display:inline;overflow:visible;enable-background:accumulate"
       d="m -845.68125,698.65996 c 0,0.47282 -0.24736,1.05593 -0.44038,1.527 -0.30603,0.74685 -0.84114,1.17459 -1.37837,1.14841 -0.88734,-0.0432 -1.57156,-1.12215 -1.49476,-1.42516 0.034,-0.21815 0.11321,0.79675 1.49476,0.79675 1.38156,0 1.87494,-2.41809 1.81875,-2.047 z"
       id="path4001"
       inkscape:connector-curvature="0"
       sodipodi:nodetypes="cssczc"
       inkscape:export-filename="C:\Users\KHR\Copy\code\MonthlyGames\2014\June\Asteroids\Assets\Sprites\sheet.png"
       inkscape:export-xdpi="626.96002"
       inkscape:export-ydpi="626.96002" />
    <path
       sodipodi:type="arc"
       style="color:#000000;fill:#f2f2f2;fill-opacity:1;fill-rule:evenodd;stroke:none;stroke-width:0.20000000000000001;marker:none;visibility:visible;display:inline;overflow:visible;enable-background:accumulate"
       id="path3981"
       sodipodi:cx="-835.04462"
       sodipodi:cy="689.95148"
       sodipodi:rx="12.946428"
       sodipodi:ry="9.2857141"
       d="m -822.09819,689.95148 c 0,5.12836 -5.79631,9.28571 -12.94643,9.28571 -7.15011,0 -12.94642,-4.15735 -12.94642,-9.28571 0,-5.12836 5.79631,-9.28572 12.94642,-9.28572 7.15012,0 12.94643,4.15736 12.94643,9.28572 z"
       transform="translate(-3.2142857,-10.357165)"
       inkscape:export-filename="C:\Users\KHR\Copy\code\MonthlyGames\2014\June\Asteroids\Assets\Sprites\sheet.png"
       inkscape:export-xdpi="626.96002"
       inkscape:export-ydpi="626.96002" />
    <path
       sodipodi:nodetypes="assasa"
       inkscape:connector-curvature="0"
       id="path3995"
       d="m -851.0714,691.29074 c -0.66855,-0.11684 -1.02915,1.66704 -1.96429,0.53572 -0.28334,-0.34277 0.58887,-0.62634 1.10684,-1.277 0.74182,-0.93185 1.17892,-0.33536 1.66102,-0.0623 0.73744,0.4177 1.94494,2.44111 1.22475,2.22812 -0.26543,-0.0785 -1.21446,-1.28232 -2.02832,-1.42455 z"
       style="color:#000000;fill:#f2f2f2;fill-opacity:0.98823529;fill-rule:evenodd;stroke:none;stroke-width:0.2;marker:none;visibility:visible;display:inline;overflow:visible;enable-background:accumulate"
       inkscape:export-filename="C:\Users\KHR\Copy\code\MonthlyGames\2014\June\Asteroids\Assets\Sprites\sheet.png"
       inkscape:export-xdpi="626.96002"
       inkscape:export-ydpi="626.96002" />
    <path
       style="color:#000000;fill:#f2f2f2;fill-opacity:1;fill-rule:evenodd;stroke:none;stroke-width:0.20000000000000001;marker:none;visibility:visible;display:inline;overflow:visible;enable-background:accumulate"
       d="m -822.0485,688.49779 c -0.14715,0.17113 -0.81454,0.27979 -1.2237,-1.46595 -0.39706,-1.69411 0.6245,-4.0982 0.2244,-4.18588 -1.80277,-0.39503 -3.0926,-2.38797 -1.63683,-1.44801 1.17635,0.75953 3.14863,-0.49925 3.06045,0.24658 -1.99777,5.62047 0.47055,6.37458 -0.42432,6.85326 z"
       id="path3997"
       inkscape:connector-curvature="0"
       sodipodi:nodetypes="cssscc"
       inkscape:export-filename="C:\Users\KHR\Copy\code\MonthlyGames\2014\June\Asteroids\Assets\Sprites\sheet.png"
       inkscape:export-xdpi="626.96002"
       inkscape:export-ydpi="626.96002" />
    <path
       style="color:#000000;fill:#666666;fill-opacity:0.98823529;fill-rule:evenodd;stroke:none;stroke-width:0.2;marker:none;visibility:visible;display:inline;overflow:visible;enable-background:accumulate"
       d="m -853.28093,691.51258 c -0.3657,0.19209 -0.49161,0.63362 -0.39124,1.01634 0.19234,0.82569 0.57809,1.5996 1.00089,2.32909 0.23236,0.38345 0.73985,0.7962 1.19839,0.54129 0.2465,-0.28127 0.29065,-0.70365 0.27483,-1.06724 -0.14404,-1.06121 -0.84885,-1.97752 -1.67099,-2.62833 -0.13033,-0.0641 -0.25992,-0.24096 -0.41188,-0.19115 z"
       id="path3965"
       inkscape:connector-curvature="0"
       transform="translate(0,-2.172441e-5)"
       inkscape:export-filename="C:\Users\KHR\Copy\code\MonthlyGames\2014\June\Asteroids\Assets\Sprites\sheet.png"
       inkscape:export-xdpi="626.96002"
       inkscape:export-ydpi="626.96002" />
    <path
       style="color:#000000;fill:#999999;fill-opacity:1;fill-rule:evenodd;stroke:none;stroke-width:0.20000000000000001;marker:none;visibility:visible;display:inline;overflow:visible;enable-background:accumulate"
       d="m -846.33618,671.50142 c -0.722,0.11343 -1.33741,0.5747 -1.90987,1.00307 -0.34221,0.30793 -0.76808,0.615 -0.89984,1.07282 0.18307,0.15999 0.37389,0.3586 0.60966,0.43527 0.55335,-0.24451 1.02684,-0.65015 1.53341,-0.98089 0.39634,-0.30955 0.85694,-0.56645 1.19259,-0.93596 -0.0206,-0.23424 -0.18599,-0.50237 -0.41294,-0.58594 -0.0375,-0.005 -0.075,-0.0134 -0.11301,-0.008 z"
       id="path3967"
       inkscape:connector-curvature="0"
       transform="translate(0,-2.172441e-5)"
       inkscape:export-filename="C:\Users\KHR\Copy\code\MonthlyGames\2014\June\Asteroids\Assets\Sprites\sheet.png"
       inkscape:export-xdpi="626.96002"
       inkscape:export-ydpi="626.96002" />
    <path
       style="color:#000000;fill:#666666;fill-opacity:0.98823529;fill-rule:evenodd;stroke:none;stroke-width:0.2;marker:none;visibility:visible;display:inline;overflow:visible;enable-background:accumulate"
       d="m -821.39616,681.76091 c -0.40102,0.0372 -0.55359,0.49686 -0.68639,0.81473 -0.48134,1.61283 -0.43491,3.32836 -0.23437,4.98186 0.13578,0.66023 0.23778,1.36697 0.6236,1.93081 0.19165,0.27874 0.60346,0.17829 0.73661,-0.10185 0.48107,-0.72812 0.42205,-1.64469 0.4691,-2.48184 0.008,-1.33177 0.0372,-2.66994 -0.0841,-3.99695 -0.086,-0.44 -0.25342,-1.02234 -0.74776,-1.14397 -0.0256,0.002 -0.0514,-0.008 -0.0767,-0.003 z"
       id="path3969"
       inkscape:connector-curvature="0"
       transform="translate(0,-2.172441e-5)"
       inkscape:export-filename="C:\Users\KHR\Copy\code\MonthlyGames\2014\June\Asteroids\Assets\Sprites\sheet.png"
       inkscape:export-xdpi="626.96002"
       inkscape:export-ydpi="626.96002" />
    <path
       transform="matrix(0.29999999,0,0,0.25480768,-601.09374,503.20902)"
       style="color:#000000;fill:#f2f2f2;fill-opacity:1;fill-rule:evenodd;stroke:none;stroke-width:0.20000000000000001;marker:none;visibility:visible;display:inline;overflow:visible;enable-background:accumulate"
       d="m -825.372,697.66038 c -4.72874,15.47749 -3.69002,10.25643 -11.16072,-3.67925 -3.81631,-7.11887 -11.45832,1.09871 -11.45832,-4.02965 0,-5.12836 5.79631,-9.28572 12.94642,-9.28572 7.15012,0 11.14697,12.16896 9.67262,16.99462 z"
       id="path3989"
       inkscape:connector-curvature="0"
       sodipodi:nodetypes="sssss"
       inkscape:export-filename="C:\Users\KHR\Copy\code\MonthlyGames\2014\June\Asteroids\Assets\Sprites\sheet.png"
       inkscape:export-xdpi="626.96002"
       inkscape:export-ydpi="626.96002" />
    <path
       sodipodi:nodetypes="ssss"
       inkscape:connector-curvature="0"
       id="path4004"
       d="m -853.5983,685.88895 c -0.31706,0.95428 -3.46588,1.66341 -2.91968,-0.75895 0.28087,-1.24564 2.08876,1.10463 3.45539,-1.83032 0.35177,-0.75544 0.0342,0.87392 -0.53571,2.58927 z"
       style="color:#000000;fill:#999999;fill-opacity:0.98823529;fill-rule:evenodd;stroke:none;stroke-width:0.2;marker:none;visibility:visible;display:inline;overflow:visible;enable-background:accumulate"
       inkscape:export-filename="C:\Users\KHR\Copy\code\MonthlyGames\2014\June\Asteroids\Assets\Sprites\sheet.png"
       inkscape:export-xdpi="626.96002"
       inkscape:export-ydpi="626.96002" />
    <path
       style="color:#000000;fill:#999999;fill-opacity:0.98823529;fill-rule:evenodd;stroke:none;stroke-width:0.2;marker:none;visibility:visible;display:inline;overflow:visible;enable-background:accumulate"
       d="m -828.08053,695.23029 c -0.71849,0.70354 0.007,3.82039 1.96279,2.29085 0.73161,-0.57204 -2.75564,-0.66676 0.12906,-3.90808 0.55401,-0.6225 -0.80035,0.35262 -2.09185,1.61723 z"
       id="path4006"
       inkscape:connector-curvature="0"
       sodipodi:nodetypes="ssss"
       inkscape:export-filename="C:\Users\KHR\Copy\code\MonthlyGames\2014\June\Asteroids\Assets\Sprites\sheet.png"
       inkscape:export-xdpi="626.96002"
       inkscape:export-ydpi="626.96002" />
    <path
       style="color:#000000;fill:#999999;fill-opacity:1;fill-rule:evenodd;stroke:none;stroke-width:0.20000000000000001;marker:none;visibility:visible;display:inline;overflow:visible;enable-background:accumulate"
       d="m -833.20585,702.24079 c -0.31706,0.95428 -7.12768,2.35789 -6.58148,-0.0645 0.28087,-1.24564 -2.1817,-2.6402 4.40241,-2.96674 1.84133,-0.0913 2.74898,1.31586 2.17907,3.03121 z"
       id="path4008"
       inkscape:connector-curvature="0"
       sodipodi:nodetypes="ssss"
       inkscape:export-filename="C:\Users\KHR\Copy\code\MonthlyGames\2014\June\Asteroids\Assets\Sprites\sheet.png"
       inkscape:export-xdpi="626.96002"
       inkscape:export-ydpi="626.96002" />
    <path
       style="color:#000000;fill:#f2f2f2;fill-opacity:1;fill-rule:evenodd;stroke:none;stroke-width:0.2;marker:none;visibility:visible;display:inline;overflow:visible;enable-background:accumulate"
       d="m -836.42001,668.12382 c 0,0 -2.90359,-0.93685 -3.70047,-0.12997 -0.98623,2.78326 2.85425,3.07786 2.31004,2.35213 -0.37991,-0.50662 -0.67975,-2.11887 1.39043,-2.22216 z"
       id="path4010"
       inkscape:connector-curvature="0"
       sodipodi:nodetypes="scss"
       inkscape:export-filename="C:\Users\KHR\Copy\code\MonthlyGames\2014\June\Asteroids\Assets\Sprites\sheet.png"
       inkscape:export-xdpi="626.96002"
       inkscape:export-ydpi="626.96002" />
    <path
       style="font-size:medium;font-style:normal;font-variant:normal;font-weight:normal;font-stretch:normal;text-indent:0;text-align:start;text-decoration:none;line-height:normal;letter-spacing:normal;word-spacing:normal;text-transform:none;direction:ltr;block-progression:tb;writing-mode:lr-tb;text-anchor:start;baseline-shift:baseline;color:#000000;fill:#000000;fill-opacity:0.98823529;stroke:none;stroke-width:1;marker:none;visibility:visible;display:inline;overflow:visible;enable-background:accumulate;font-family:Sans;-inkscape-font-specification:Sans"
       d="m -839.375,666.9375 c -0.27077,0.0162 -0.49229,0.052 -0.6875,0.0937 -0.39043,0.084 -0.74054,0.25986 -0.875,0.59375 -0.13446,0.33389 -0.0479,0.59563 0,0.78125 0.0479,0.18562 0.0682,0.33893 0.0625,0.40625 -0.008,0.0898 -0.11312,0.44613 -0.1875,0.78125 -1.56885,0.28419 -3.08947,0.76243 -4.46875,1.46875 -0.20654,-0.21233 -0.34348,-0.48191 -0.71875,-0.5 -0.6057,-0.0292 -1.26474,0.25364 -2.25,0.96875 -0.98712,0.71645 -1.4839,1.2616 -1.5625,1.875 -0.0393,0.3067 0.0758,0.58209 0.21875,0.78125 0.0295,0.0412 0.0626,0.0584 0.0937,0.0937 -0.74424,0.77381 -1.45226,1.59101 -2.03125,2.5 -0.25211,0.015 -0.50111,0.0209 -0.59375,0 -0.15778,-0.0357 -0.39114,-0.15234 -0.65625,-0.3125 -0.13256,-0.0801 -0.27006,-0.17029 -0.46875,-0.21875 -0.19869,-0.0485 -0.46698,-0.0501 -0.6875,0.0625 -0.44104,0.22523 -0.68294,0.6613 -0.96875,1.40625 -0.28581,0.74495 -0.60014,1.83566 -0.96875,3.46875 -0.36863,1.63317 -0.56345,2.76537 -0.625,3.5625 -0.0616,0.79713 -0.0186,1.29388 0.28125,1.6875 0.1499,0.19681 0.39342,0.33168 0.59375,0.375 0.20033,0.0433 0.37655,0.0457 0.53125,0.0312 0.3094,-0.029 0.52871,-0.0671 0.6875,-0.0312 0.0583,0.0132 0.27162,0.11251 0.4375,0.1875 0.11959,1.20744 0.41161,2.3569 0.78125,3.46875 -0.0501,0.006 -0.0493,0.024 -0.125,0.0312 -0.0938,0.009 -0.20334,0.004 -0.34375,0.0625 -0.14041,0.0585 -0.31875,0.20415 -0.40625,0.375 -0.17501,0.3417 -0.0937,0.64966 0.0312,1.09375 0.125,0.44409 0.33637,1.05812 0.71875,1.90625 0.38232,0.84803 0.68735,1.39156 0.9375,1.78125 0.25015,0.38969 0.44684,0.64775 0.8125,0.75 0.18283,0.0511 0.3916,0.0322 0.53125,-0.0312 0.13965,-0.0635 0.24193,-0.15522 0.3125,-0.21875 0.14114,-0.12706 0.22403,-0.1758 0.25,-0.1875 0.0175,-0.008 0.21141,-0.0616 0.34375,-0.0937 0.94363,1.0967 2.00998,2.06272 3.21875,2.875 -0.009,0.25422 -0.0915,0.50409 0.0937,0.75 0.30117,0.39977 0.8232,0.69041 1.6875,1 0.60021,0.215 1.02389,0.3196 1.40625,0.3125 0.20423,-0.004 0.3335,-0.14434 0.5,-0.21875 0.89269,0.31041 1.8234,0.53656 2.78125,0.6875 0.14524,0.34498 0.30573,0.72921 0.3125,0.78125 0.0108,0.0826 -0.0186,0.26388 -0.0625,0.5 -0.022,0.11806 -0.0522,0.23295 -0.0312,0.40625 0.0209,0.1733 0.1246,0.3854 0.28125,0.53125 0.3133,0.2917 0.711,0.36434 1.3125,0.375 0.6015,0.0107 1.43014,-0.0589 2.65625,-0.21875 1.22596,-0.15988 2.0459,-0.30517 2.625,-0.46875 0.5791,-0.16358 0.95701,-0.32813 1.1875,-0.6875 0.11525,-0.17969 0.14814,-0.38918 0.125,-0.5625 -0.0231,-0.17332 -0.0739,-0.3291 -0.125,-0.4375 -0.10217,-0.21679 -0.17665,-0.35411 -0.1875,-0.4375 -0.0114,-0.088 -0.005,-0.3581 0,-0.59375 0.4858,-0.17905 0.9733,-0.36905 1.4375,-0.59375 0.14017,0.0198 0.25965,0.0968 0.40625,0.0625 0.28079,-0.0657 0.57264,-0.2249 0.9375,-0.46875 0.34269,-0.22904 0.44487,-0.43976 0.59375,-0.65625 0.0223,-0.0324 0.0752,-0.0613 0.0937,-0.0937 l 0.0312,0.0312 0.0937,-0.0937 c 0.007,-0.005 0.0245,0.005 0.0312,0 0.40717,-0.29088 0.74845,-0.60204 1.09375,-0.90625 -0.0185,-0.0153 0.019,0.0375 0.0937,0.15625 0.0374,0.0594 0.0845,0.13227 0.1875,0.21875 0.10297,0.0865 0.26912,0.15949 0.4375,0.15625 0.33677,-0.006 0.53671,-0.15185 0.78125,-0.375 0.24454,-0.22315 0.52729,-0.56589 0.9375,-1.0625 0.41014,-0.49653 0.67072,-0.84324 0.84375,-1.125 0.17303,-0.28176 0.30674,-0.51137 0.25,-0.84375 -0.0284,-0.16619 -0.11416,-0.32154 -0.21875,-0.40625 -0.0906,-0.0734 -0.18828,-0.0694 -0.25,-0.0937 0.31221,-0.46278 0.61178,-0.91417 0.875,-1.40625 0.10485,-0.0687 0.22886,-0.0884 0.3125,-0.1875 0.1712,-0.20277 0.33664,-0.45036 0.5,-0.8125 0.16822,-0.37291 0.25442,-0.66797 0.28125,-0.9375 0.0111,-0.11118 -0.0693,-0.20008 -0.0937,-0.3125 0.047,-0.1301 0.0763,-0.26547 0.125,-0.40625 0.79355,-0.34305 1.30072,0.13959 1.9375,0.0312 0.20794,-0.0354 0.41673,-0.0701 0.59375,-0.21875 0.35404,-0.29727 0.49067,-0.73923 0.59375,-1.4375 0.10308,-0.69827 0.15625,-1.69194 0.15625,-3.15625 0,-1.46431 -0.0531,-2.46054 -0.15625,-3.15625 -0.10316,-0.69571 -0.23422,-1.14376 -0.59375,-1.4375 -0.17976,-0.14687 -0.4038,-0.19129 -0.59375,-0.1875 -0.18995,0.004 -0.33743,0.0503 -0.46875,0.0937 -0.47758,0.22302 -1.15473,0.51535 -1.375,0.0312 -0.57466,-1.97685 -1.51874,-3.78894 -2.75,-5.375 0.20143,-0.16414 0.41421,-0.26383 0.46875,-0.65625 0.0862,-0.62049 -0.27292,-1.25558 -1.1875,-2.125 -0.45064,-0.42839 -0.81901,-0.67942 -1.15625,-0.84375 -0.33724,-0.16433 -0.66641,-0.2338 -0.96875,-0.125 -0.26885,0.0967 -0.42057,0.2985 -0.53125,0.46875 -1.28732,-0.91921 -2.7148,-1.64381 -4.25,-2.15625 -0.0615,-0.30271 -0.12808,-0.65119 -0.125,-0.6875 0.007,-0.0771 0.0631,-0.22251 0.15625,-0.4375 0.0466,-0.10749 0.10651,-0.23486 0.125,-0.40625 0.0185,-0.17139 -0.004,-0.38699 -0.125,-0.5625 -0.24143,-0.35103 -0.61398,-0.49067 -1.1875,-0.625 -0.57352,-0.13433 -1.41566,-0.24143 -2.625,-0.34375 -0.58954,-0.0499 -1.0773,-0.10939 -1.53125,-0.125 -0.37795,-0.013 -0.69798,-0.0162 -0.96875,0 z m 0.0312,1 c 0.23225,-0.0123 0.51711,-0.0123 0.875,0 0.38703,0.0133 0.92347,0.0736 1.53125,0.125 1.18529,0.10028 1.95284,0.19899 2.4375,0.3125 0.43146,0.10106 0.5257,0.1962 0.53125,0.1875 -0.007,0.0202 0.0152,0.0275 0,0.0625 -0.0645,0.14891 -0.21964,0.39234 -0.25,0.75 0.37791,1.62679 -0.47902,1.16146 -1.96875,1.09375 l 2.5,0.46875 c 1.70939,0.53167 3.29117,1.40117 4.6875,2.46875 l 1.28125,1 -0.5312,-1.15625 c 0.0849,-0.15988 0.13612,-0.31952 0.1875,-0.40625 0.0514,-0.0867 0.0716,-0.097 0.0625,-0.0937 -0.009,0.003 0.0302,-0.0294 0.21875,0.0625 0.18854,0.0919 0.49929,0.33187 0.90625,0.71875 0.82556,0.78478 0.91669,1.17486 0.90625,1.25 -0.0104,0.0751 -0.14992,0.15066 -0.40625,0.34375 l -0.90625,-0.375 0.84375,1.09375 c 1.34239,1.64123 2.21953,3.26457 2.78125,5.375 0.29022,0.72266 -0.27642,0.25329 -1.15625,0.125 0.91113,0.5725 1.30687,0.6516 2.21875,0.4375 0.26312,-0.0618 0.73327,-0.6018 0.8125,-0.15625 -0.24206,0.2676 -0.40621,0.77552 -0.5625,1.1875 -0.24371,0.81046 -0.3558,1.85625 -0.34375,2.90625 0.0121,1.05 0.12104,1.96306 0.375,2.90625 0.11589,0.43041 0.32355,0.89101 0.53125,1.21875 -0.32997,0.0784 -0.62372,-0.34784 -1.59375,-0.3125 -0.44219,0.007 -0.81477,0.33269 -1.34375,0.65625 1.2847,-0.53751 1.15284,-0.63471 0.8125,0.34375 l -0.125,0.28125 0.1875,0.1875 c -0.009,0.0855 -0.0749,0.27488 -0.21875,0.59375 -0.14131,0.31326 -0.23792,0.50542 -0.3125,0.59375 -0.0746,0.0883 -0.0983,0.0684 -0.0625,0.0625 l -0.21875,0.0625 -0.125,0.1875 c -0.32334,0.6083 -0.69464,1.22723 -1.09375,1.78125 l -0.5,0.6875 c 0.16365,-0.1712 0.32635,-0.33517 0.53125,-0.0937 0.074,0.0882 0.13823,0.15221 0.21875,0.21875 0.10063,0.0832 0.14077,0.0925 0.21875,0.125 -0.0146,0.034 4.2e-4,-0.0204 -0.0312,0.0312 -0.12709,0.20696 -0.35452,0.55245 -0.75,1.03125 -0.39542,0.4787 -0.69568,0.77386 -0.875,0.9375 -0.0502,0.0458 6.7e-4,0.0104 -0.0312,0.0312 -0.0464,-0.0691 -0.0585,-0.10672 -0.15625,-0.1875 -0.18785,-0.15525 -0.34117,-0.21917 -0.5,-0.28125 l -0.15625,-0.0312 0.375,-0.4375 c -0.14412,0.16623 -0.47517,0.3329 -0.625,0.46875 -4.7e-4,2.1e-4 -0.12463,0.0934 -0.125,0.0937 -0.44324,0.3828 -0.85182,0.75876 -1.28125,1.0625 -0.006,0.004 -0.025,-0.004 -0.0312,0 -1.1e-4,4e-5 -0.0604,0.044 -0.0937,0.0625 l -0.0625,0.0625 -0.0312,0.0312 -0.0312,0 c -3e-5,3e-5 -0.0625,0.15621 -0.0625,0.15625 -0.008,0.0233 -0.1011,0.20214 -0.5,0.46875 -0.30551,0.20419 -0.49614,0.28967 -0.59375,0.3125 -0.0976,0.0228 -0.0803,-0.0107 -0.0625,0 l -0.21875,-0.125 -0.25,0.125 c -1.3062,0.6905 -2.58419,0.89564 -4.0625,1.21875 l 1.96875,-0.0312 c 0.007,0.32315 -0.047,0.66987 0,1.03125 0.0465,0.35739 0.21161,0.60223 0.28125,0.75 0.0164,0.0348 -0.007,0.0423 0,0.0625 -0.0114,-10e-4 -0.0928,0.0949 -0.53125,0.21875 -0.49171,0.1389 -1.29811,0.28076 -2.5,0.4375 -1.20174,0.15673 -2.02162,0.22778 -2.53125,0.21875 -0.48471,-0.009 -0.60818,-0.11296 -0.59375,-0.0937 0.002,-0.0209 -0.006,-0.0301 0,-0.0625 0.0302,-0.16227 0.14047,-0.42307 0.0937,-0.78125 -0.0712,-0.54703 -0.38048,-0.89411 -0.5,-1.25 l 2.46875,-0.28125 c -1.99094,0.0878 -4.13381,-0.18309 -5.84375,-0.78125 l -0.3125,-0.125 -0.21875,0.28125 c -1.8e-4,2.1e-4 0.002,0.0277 -0.1875,0.0312 -0.18984,0.004 -0.5612,-0.0592 -1.09375,-0.25 -0.77397,-0.27724 -1.08986,-0.55789 -1.1875,-0.6875 -0.0976,-0.12961 -0.0797,-0.0996 -0.0312,-0.21875 l 0.15625,-0.375 -0.34375,-0.21875 c -1.27913,-0.83801 -2.43174,-1.88168 -3.40625,-3.0625 -0.22783,-0.22757 0.46875,-0.34375 0.46875,-0.34375 0.15255,-0.2373 -0.99408,-0.0799 -1.59375,0.28125 -0.22244,-1.85381 -1.40841,-3.28199 -1.75,-3.65625 0.64156,-0.28808 1.17784,-0.99469 1.25,-1.09375 0.17857,-0.51339 -0.69535,0.64284 -0.90625,0.375 -0.46265,-1.27234 -0.76922,-2.63134 -0.875,-4.03125 -0.0465,-1.0457 0.20308,-2.26571 0.3125,-2.84375 -0.59966,0.51851 -0.36807,2.51391 -1.4375,2.0625 -0.42989,-0.0972 -0.79646,0.009 -1.03125,0.0312 -0.10272,0.01 -0.18486,0.004 -0.21875,0 -0.009,-0.0124 -0.14843,-0.29317 -0.0937,-1 0.0546,-0.70683 0.26167,-1.79657 0.625,-3.40625 0.36335,-1.60977 0.65284,-2.68323 0.90625,-3.34375 0.25341,-0.66052 0.48995,-0.86987 0.5,-0.875 0.032,0.0108 0.0985,0.04 0.1875,0.0937 0.20247,0.12232 0.47535,0.37137 0.90625,0.46875 0.88661,0.82725 0.19845,2.07366 0.0625,3.65625 0.431,-1.63505 1.03775,-3.26764 1.46875,-3.90625 0.66371,-1.08692 1.43805,-2.0857 2.34375,-2.96875 l 0.4375,-0.40625 c 0.77524,-0.60891 1.24506,-0.99689 1.5,-1.21875 0.23559,-0.13448 0.49566,-0.27939 1.0625,-0.65625 l 0.46875,-0.25 c 1.45852,-0.77868 3.01832,-1.29584 4.71875,-1.5625 l 2.375,-0.125 c -1.57835,-0.18805 -2.00814,-0.0983 -1.6875,-1.46875 0.0266,-0.31306 -0.0512,-0.55356 -0.0937,-0.71875 -0.0172,-0.0667 -0.0246,-0.0947 -0.0312,-0.125 0.0258,-0.007 0.0443,-0.014 0.125,-0.0312 0.11936,-0.0257 0.299,-0.0502 0.53125,-0.0625 z m -6.9375,3.625 c 0.19632,0.009 0.328,0.2921 0.4375,0.5 -0.5321,0.41448 -0.88656,0.69826 -1.09375,0.875 -0.32464,0.20024 -0.83846,0.51065 -1.59375,1.03125 -0.11059,-0.0812 -0.46495,-0.32616 -0.5,-0.375 -0.035,-0.0488 -0.0372,-0.0161 -0.0312,-0.0625 0.0119,-0.0927 0.22354,-0.53322 1.125,-1.1875 0.90327,-0.65561 1.45993,-0.79071 1.65625,-0.78125 z m 24.8125,10.28125 c 0.26355,-0.0759 0.55642,0.13576 0.78125,0.75 0.0897,0.60468 0.15625,1.56016 0.15625,3 0,1.43984 -0.0665,2.39202 -0.15625,3 -0.34338,1.27353 -0.98937,1.3753 -1.3125,0.0312 -0.2096,-0.76014 -0.375,-1.3871 -0.375,-2.9375 0,-1.5504 0.0179,-1.61994 0.28125,-2.8125 0.13168,-0.59628 0.36145,-0.95532 0.625,-1.03125 z m -31.76786,9.71875 c 1.21548,0.64166 2.45176,2.51895 1.78125,3.71875 -0.0971,0.17372 -0.41217,0.14396 -0.59375,0.0625 -0.55652,-0.24966 -0.81274,-0.93216 -1.06696,-1.48661 -0.27439,-0.59842 -0.62864,-1.28216 -0.46429,-1.91964 0.0423,-0.1642 0.28485,-0.31074 0.34375,-0.375 z"
       transform="translate(0,-2.172441e-5)"
       id="path3842"
       inkscape:connector-curvature="0"
       sodipodi:nodetypes="scsscccssscccccccsscccsccccscccsccsccccsccccccsccssccccccccccccccccssscccccscccccsscccccccsscccccccscssscccccccccccccccccccccccccscccccccccccccccccccccccccccccccccscccccccsccscccccccccccccccccccccccccccssccccccccccccccccsccscccscscsacscsaaaacaaaac"
       inkscape:export-filename="C:\Users\KHR\Copy\code\MonthlyGames\2014\June\Asteroids\Assets\Sprites\sheet.png"
       inkscape:export-xdpi="626.96002"
       inkscape:export-ydpi="626.96002" />
    <path
       inkscape:connector-curvature="0"
       id="path3971"
       d="m -760.99482,700.09077 c 0.21996,-0.1427 0.47424,-0.26919 0.63186,-0.47924 -0.19016,-0.31137 -0.47994,-0.57233 -0.59012,-0.93592 -0.136,-0.32797 -0.30665,-0.80213 -0.7399,-0.78184 -0.23576,0.005 -0.45999,0.0912 -0.67702,0.17502 0.91628,-0.56354 1.79329,-1.19597 2.53627,-1.97981 1.2861,-1.29969 2.3376,-2.83853 3.06931,-4.51372 0.60838,-1.52533 1.0887,-3.1075 1.21346,-4.75086 0.14541,-1.34987 -0.045,-2.70659 -0.35315,-4.0212 0.25479,0.62631 0.42171,1.35768 0.95654,1.81578 0.27347,0.23351 0.63973,0.30625 0.98246,0.21729 0.28651,-0.0512 0.61203,0.0799 0.87678,-0.0439 0.14255,-0.34007 0.024,-0.73452 -0.002,-1.09159 -0.22471,-1.35701 -0.6891,-2.66068 -1.08427,-3.97526 -0.39642,-1.13802 -0.68245,-2.3503 -1.40814,-3.33567 -0.16595,-0.32702 -0.41354,-0.005 -0.59976,0.11913 -0.3485,0.26622 -0.77144,0.41514 -1.15215,0.61762 -0.23068,0.60561 0.13476,1.22892 0.20063,1.83587 0.0359,0.22482 -0.13265,-0.33397 -0.17609,-0.4014 -0.69132,-1.92581 -2.08893,-3.51013 -3.63875,-4.79985 -0.24365,-0.11634 -0.33513,0.25446 -0.41538,0.41058 -0.0498,0.129 -0.14109,0.36215 -0.0778,0.0884 0.078,-0.4325 0.25036,-0.84591 0.45423,-1.22707 -0.0826,-0.20026 -0.40223,-0.18722 -0.58259,-0.30213 -1.01822,-0.43526 -1.94745,-1.09996 -2.67547,-1.93765 -0.22775,-0.19264 -0.38031,0.18516 -0.52615,0.30492 -0.18392,0.21265 -0.43116,0.46429 -0.64861,0.57606 0.16794,-0.11531 0.28079,-0.41138 0.0281,-0.50107 -1.24592,-0.5 -2.58011,-0.75319 -3.90893,-0.91668 -0.30196,-0.0342 -0.61552,-0.0419 -0.91126,-0.0828 -0.0394,-0.20764 0.007,-0.54034 -0.28679,-0.56095 -0.66617,-0.16779 -1.36675,-0.004 -2.0152,0.16472 -0.21272,0.0901 -0.48856,0.14281 -0.6272,0.32828 -0.0102,0.15135 0.0343,0.37377 -0.19212,0.33966 -1.56391,0.29217 -3.06193,0.87129 -4.46087,1.62345 0.30338,-0.24825 0.66988,-0.44368 0.92438,-0.73989 -0.0565,-0.23329 -0.36896,-0.30167 -0.52809,-0.46386 -0.43884,-0.2601 -0.65601,-0.7348 -0.82451,-1.19253 -0.17124,-0.12639 -0.39591,0.0702 -0.56881,0.12798 -1.28183,0.75566 -2.44666,1.69816 -3.59642,2.64088 -0.30847,0.29746 -0.69113,0.5637 -0.88987,0.95033 0.0208,0.29052 0.39292,0.36965 0.55285,0.57809 0.25972,0.29766 0.37554,0.70746 0.64138,0.99092 0.3506,-0.12852 0.66482,-0.36397 1.0018,-0.53324 -0.88781,0.80707 -1.73188,1.66846 -2.38314,2.67752 -0.12888,0.0675 -0.32044,0.0331 -0.40547,0.19057 -0.25879,0.39343 -0.52692,0.85725 -0.50036,1.33758 -0.31999,0.69201 -0.54915,1.42048 -0.8393,2.12609 -0.1978,-0.10677 -0.47089,0.0303 -0.70209,-0.0273 -0.25489,-0.10391 -0.45858,0.007 -0.44705,0.29586 -0.17474,0.745 -0.35235,1.50849 -0.34882,2.27645 0.0789,0.17103 0.31559,0.0679 0.46371,0.14468 0.14127,0.0152 0.29036,0.0817 0.43103,0.0379 -0.10738,0.85929 -0.0925,1.73678 -0.11996,2.59356 -0.009,0.1943 -0.20819,0.31312 -0.17365,0.52232 0.005,0.41118 0.0317,0.84191 0.15618,1.22754 0.33383,0.003 0.24843,0.35769 0.30997,0.59267 0.0601,0.16676 0.007,0.52451 0.25695,0.53146 0.15223,-0.10683 -0.0185,0.0798 -0.0677,0.12277 -0.37992,0.29406 -0.8305,0.46356 -1.30417,0.5192 -0.14135,0.0136 -0.48763,0.12154 -0.29191,0.30726 1.45562,0.93454 2.40629,2.45253 3.19587,3.95898 0.41986,0.84502 0.74922,1.76969 0.7955,2.72548 -0.0566,0.19665 0.0256,0.55336 0.29342,0.45242 0.26665,-0.18605 0.32465,-0.55955 0.60075,-0.74797 0.37619,-0.35046 0.8709,-0.56609 1.38995,-0.56408 -0.21851,0.0875 -0.53358,0.0684 -0.67621,0.28245 0.008,0.27116 0.31752,0.42436 0.47157,0.61858 1.16596,1.08938 2.48116,2.03495 3.9628,2.64297 0.63284,0.28343 1.27919,0.53849 1.9178,0.80984 -0.24426,0.0734 -0.58541,-0.0185 -0.76137,0.19633 -0.12201,0.19787 -0.25134,0.52612 0.017,0.66838 0.6706,0.41301 1.47449,0.56307 2.2452,0.65777 0.19141,0.0317 0.50813,0.0131 0.48495,-0.251 0.004,-0.23268 0.0184,-0.51402 -0.24544,-0.6105 -0.19307,-0.13922 -0.38296,-0.27584 -0.57188,-0.41738 1.56604,0.21305 3.15889,0.41638 4.74085,0.23984 0.95001,-0.0739 1.89708,-0.23154 2.78263,-0.59775 0.32172,-0.12801 0.0178,0.0149 -0.0905,0.12118 -0.30356,0.26775 -0.15744,0.74195 0.10475,0.985 0.25719,0.26806 0.35024,0.62762 0.38855,0.98547 0.1129,0.26316 0.44389,0.0807 0.64149,0.0453 1.46781,-0.51465 2.87462,-1.19927 4.24055,-1.94085 0.0417,-0.0246 0.0833,-0.0492 0.12516,-0.0734 z"
       style="color:#000000;fill:#e1e1e1;fill-opacity:0.98823529;fill-rule:evenodd;stroke:none;stroke-width:0.20000000000000001;marker:none;visibility:visible;display:inline;overflow:visible;enable-background:accumulate" />
    <path
       inkscape:connector-curvature="0"
       id="path3973"
       d="m -760.66403,672.6029 c 0.22066,-0.3492 0.10894,-0.79453 -0.16934,-1.07579 -0.57942,-0.6189 -1.30044,-1.09625 -2.03134,-1.51661 -0.39296,-0.2159 -1.03883,-0.31961 -1.30849,0.13042 -0.0728,0.36684 0.10012,0.75471 0.29562,1.06168 0.65534,0.84701 1.72388,1.28815 2.76128,1.4407 0.14492,-0.01 0.34558,0.0787 0.45227,-0.0404 z"
       style="color:#000000;fill:#7d7d7d;fill-opacity:0.98823529;fill-rule:evenodd;stroke:none;stroke-width:0.20000000000000001;marker:none;visibility:visible;display:inline;overflow:visible;enable-background:accumulate" />
    <path
       inkscape:connector-curvature="0"
       id="path3975"
       d="m -756.67278,693.40545 c 0.56856,-0.45923 0.87088,-1.16641 1.15246,-1.82362 0.1424,-0.43778 0.35768,-0.91665 0.24288,-1.37901 -0.23854,-0.047 -0.5031,-0.12361 -0.74562,-0.0721 -0.35696,0.48842 -0.56419,1.07646 -0.83752,1.61618 -0.18847,0.46625 -0.45891,0.91903 -0.56484,1.40686 0.13496,0.19255 0.41226,0.34207 0.65059,0.30097 0.035,-0.0144 0.0716,-0.0259 0.10187,-0.0496 z"
       style="color:#000000;fill:#7d7d7d;fill-opacity:0.98823529;fill-rule:evenodd;stroke:none;stroke-width:0.20000000000000001;marker:none;visibility:visible;display:inline;overflow:visible;enable-background:accumulate" />
    <path
       inkscape:connector-curvature="0"
       id="path3977"
       d="m -783.40121,696.99048 c 0.32869,-0.23273 0.23099,-0.70709 0.18706,-1.04877 -0.38956,-1.63742 -1.28753,-3.0999 -2.28796,-4.4316 -0.4477,-0.50389 -0.8894,-1.06494 -1.50545,-1.36033 -0.30535,-0.14558 -0.61176,0.14732 -0.587,0.45651 -0.0526,0.8711 0.45684,1.63536 0.83467,2.38388 0.65895,1.15735 1.30275,2.33084 2.0713,3.41941 0.29448,0.33805 0.73064,0.75866 1.21957,0.61683 0.0212,-0.0145 0.0485,-0.0188 0.0679,-0.0358 z"
       style="color:#000000;fill:#7d7d7d;fill-opacity:0.98823529;fill-rule:evenodd;stroke:none;stroke-width:0.20000000000000001;marker:none;visibility:visible;display:inline;overflow:visible;enable-background:accumulate" />
    <path
       sodipodi:nodetypes="scsscccssscccccccsscccsccccscccsccsccccsccccccsccssccccccccccccccccssscccccscccccsscccccccsscccccccscssscccccccccccccccccccccccccscccccccccccccccccccccccccccccccccscccccccsccscccccccccccccccccccccccccccssccccccccccccccccsccscccscscsacscsaaaacaaaac"
       inkscape:connector-curvature="0"
       id="path3979"
       d="m -760.41938,700.83851 c 0.2264,-0.14941 0.40034,-0.29118 0.54855,-0.4249 0.29612,-0.26796 0.51139,-0.59531 0.46089,-0.9517 -0.0505,-0.35639 -0.25633,-0.53978 -0.39062,-0.67658 -0.13429,-0.1368 -0.22853,-0.25942 -0.25725,-0.32057 -0.038,-0.0818 -0.1251,-0.44292 -0.22825,-0.77034 1.21657,-1.03054 2.29435,-2.20502 3.13568,-3.50635 0.28503,0.0806 0.53842,0.24561 0.87245,0.0736 0.53916,-0.27756 0.96848,-0.85203 1.46419,-1.96396 0.49664,-1.11402 0.65429,-1.83453 0.41566,-2.40505 -0.11931,-0.28526 -0.35669,-0.4662 -0.58007,-0.56721 -0.0461,-0.0209 -0.0834,-0.0193 -0.12799,-0.0343 0.25762,-1.04226 0.46219,-2.10399 0.50911,-3.18069 0.21083,-0.13905 0.42352,-0.26866 0.5142,-0.29688 0.15449,-0.048 0.41491,-0.0636 0.72458,-0.0575 0.15485,0.003 0.31903,0.0125 0.51533,-0.0449 0.19632,-0.0573 0.42946,-0.1901 0.56414,-0.39788 0.26934,-0.41557 0.26079,-0.91417 0.13584,-1.70222 -0.12496,-0.78805 -0.3981,-1.8898 -0.89542,-3.4884 -0.49734,-1.59868 -0.89472,-2.67661 -1.23998,-3.39772 -0.34522,-0.72113 -0.63083,-1.12983 -1.08732,-1.32079 -0.22822,-0.0955 -0.50655,-0.0905 -0.7017,-0.0279 -0.19514,0.0627 -0.34895,0.14869 -0.47568,0.2386 -0.25345,0.17982 -0.42432,0.32247 -0.57979,0.37077 -0.0571,0.0177 -0.29149,0.0384 -0.47264,0.0564 -0.70729,-0.98588 -1.53491,-1.83533 -2.41095,-2.6134 0.0404,-0.0302 0.0307,-0.0454 0.0927,-0.0895 0.0767,-0.0547 0.1741,-0.10513 0.26644,-0.226 0.0924,-0.12087 0.17398,-0.33617 0.16433,-0.52788 -0.0193,-0.38343 -0.24369,-0.60948 -0.5739,-0.93162 -0.3303,-0.32209 -0.82036,-0.74817 -1.57558,-1.29149 -0.75511,-0.54325 -1.29104,-0.86145 -1.70252,-1.07385 -0.41148,-0.21241 -0.71085,-0.33755 -1.07865,-0.24327 -0.18388,0.0472 -0.35523,0.16791 -0.44447,0.29264 -0.0892,0.12482 -0.13191,0.25539 -0.16126,0.3457 -0.0587,0.1806 -0.10612,0.26426 -0.12276,0.28738 -0.0111,0.0157 -0.15228,0.15905 -0.25084,0.25302 -1.36556,-0.47796 -2.77206,-0.78138 -4.22502,-0.88045 -0.11932,-0.22466 -0.17281,-0.48231 -0.45615,-0.60267 -0.46071,-0.19563 -1.05812,-0.18631 -1.96142,-0.0223 -0.62729,0.11391 -1.04651,0.23517 -1.3741,0.4325 -0.17486,0.10558 -0.21665,0.29175 -0.32363,0.43944 -0.9283,0.17752 -1.84739,0.44702 -2.75239,0.79523 -0.29827,-0.22614 -0.62937,-0.47865 -0.66125,-0.52033 -0.0507,-0.0661 -0.11584,-0.23783 -0.19588,-0.46426 -0.04,-0.11325 -0.0713,-0.22784 -0.1761,-0.36743 -0.10475,-0.13963 -0.30061,-0.27146 -0.5092,-0.31945 -0.41717,-0.096 -0.79791,0.04 -1.32416,0.33149 -0.52626,0.29149 -1.20908,0.76608 -2.191,1.51757 -0.98177,0.75144 -1.61922,1.28724 -2.03894,1.71845 -0.41973,0.43122 -0.66473,0.76267 -0.68466,1.18914 -0.01,0.21324 0.0663,0.41111 0.173,0.54964 0.10666,0.13855 0.22855,0.24806 0.327,0.31639 0.19688,0.13666 0.33004,0.21834 0.38113,0.28514 0.0539,0.0705 0.18338,0.30762 0.29688,0.5142 -0.33119,0.39796 -0.65838,0.80625 -0.94804,1.23295 -0.13129,0.0529 -0.27326,0.046 -0.38307,0.149 -0.21032,0.19729 -0.38347,0.48109 -0.57753,0.8747 -0.18225,0.3697 -0.16539,0.60328 -0.18607,0.8652 -0.003,0.0392 -0.0345,0.0907 -0.0343,0.128 l -0.0426,-0.0114 -0.0343,0.128 c -0.004,0.008 -0.0237,0.008 -0.027,0.0156 -0.20718,0.45549 -0.34715,0.8956 -0.49409,1.33171 0.0237,0.004 -0.0352,-0.023 -0.15927,-0.0885 -0.0621,-0.0327 -0.13931,-0.0723 -0.27175,-0.0957 -0.13243,-0.0234 -0.31281,-0.004 -0.45701,0.0834 -0.28866,0.17358 -0.38888,0.39986 -0.48909,0.71538 -0.1002,0.31553 -0.1737,0.75372 -0.28065,1.38891 -0.10692,0.63507 -0.15924,1.06562 -0.16821,1.39615 -0.009,0.33053 -0.01,0.59623 0.20537,0.85571 0.10769,0.12972 0.25964,0.22138 0.39257,0.24245 0.11516,0.0183 0.19776,-0.034 0.26336,-0.0439 -0.039,0.55689 -0.0727,1.09759 -0.0547,1.65535 -0.0565,0.11192 -0.154,0.19099 -0.17688,0.31863 -0.0469,0.26121 -0.0664,0.55834 -0.0268,0.95365 0.0408,0.40706 0.11365,0.70569 0.22518,0.95252 0.046,0.10184 0.16005,0.13863 0.23739,0.22378 0.0244,0.13617 0.0667,0.26806 0.0949,0.41433 -0.51571,0.69386 -1.19625,0.52947 -1.69352,0.94173 -0.16238,0.13462 -0.32585,0.26907 -0.40483,0.48631 -0.15797,0.43447 -0.0553,0.88553 0.20455,1.54179 0.25986,0.65626 0.71065,1.54339 1.44281,2.81152 0.73215,1.26813 1.27625,2.10434 1.71344,2.65527 0.43719,0.55092 0.77472,0.87341 1.23295,0.94803 0.22911,0.0373 0.44535,-0.0362 0.60795,-0.13449 0.16251,-0.0984 0.26708,-0.21228 0.3591,-0.31552 0.30209,-0.43193 0.74235,-1.02368 1.17519,-0.71452 1.48609,1.42467 3.20974,2.52194 5.06907,3.27988 -0.0924,0.24287 -0.2268,0.43559 -0.0778,0.80271 0.2356,0.58046 0.86415,0.9509 2.09091,1.24655 0.60446,0.14568 1.04899,0.17889 1.42322,0.15258 0.37422,-0.0263 0.69402,-0.13072 0.90146,-0.37612 0.18448,-0.21817 0.21497,-0.46879 0.2257,-0.67157 1.57446,0.1524 3.17299,0.0662 4.75873,-0.25763 0.20462,0.2314 0.43652,0.4999 0.45201,0.53289 0.0325,0.0703 0.0566,0.22425 0.0834,0.45701 0.0134,0.11639 0.0252,0.25665 0.0949,0.41432 0.0697,0.15768 0.19696,0.33315 0.3895,0.42464 0.3846,0.18329 0.77706,0.11794 1.34091,-0.0525 0.56385,-0.17043 1.34671,-0.49875 2.44519,-1.01481 0.53551,-0.25155 0.98767,-0.44391 1.3886,-0.65737 0.33382,-0.17771 0.61257,-0.33496 0.83896,-0.48437 z m -0.52702,-0.85043 c -0.19498,0.12678 -0.44168,0.26921 -0.75777,0.4375 -0.34183,0.182 -0.83655,0.398 -1.3886,0.65738 -1.07663,0.5058 -1.7907,0.80409 -2.26719,0.94811 -0.42418,0.12821 -0.55337,0.0929 -0.55382,0.10325 -0.004,-0.021 -0.0269,-0.0162 -0.0312,-0.0541 -0.0186,-0.16121 -0.006,-0.44959 -0.1585,-0.77452 -1.14067,-1.21988 -0.16588,-1.24536 1.15812,-1.93159 l -2.39944,0.84405 c -1.74621,0.39426 -3.55082,0.43214 -5.29387,0.20575 l -1.6096,-0.2254 1.03816,0.73574 c 0.006,0.18091 0.0419,0.34478 0.0408,0.44558 -0.001,0.10078 -0.0135,0.1198 -0.007,0.11239 0.006,-0.007 -0.0114,0.0406 -0.22069,0.0553 -0.20923,0.0147 -0.59834,-0.0378 -1.14421,-0.16933 -1.10735,-0.26686 -1.38131,-0.55911 -1.40984,-0.6294 -0.0285,-0.0702 0.0545,-0.20544 0.17995,-0.50083 l 0.97234,-0.12836 -1.27759,-0.52534 c -1.98316,-0.75015 -3.55445,-1.71744 -5.09613,-3.26426 -0.61267,-0.48074 0.11274,-0.35757 0.93884,-0.68638 -1.07531,-0.0402 -1.45758,0.0891 -2.14024,0.73049 -0.19697,0.18508 -0.33413,0.88781 -0.62552,0.54156 0.0758,-0.35277 -0.036,-0.87472 -0.10662,-1.30965 -0.19417,-0.82374 -0.61999,-1.78546 -1.15542,-2.68876 -0.53548,-0.90328 -1.08636,-1.63954 -1.77789,-2.32939 -0.31557,-0.3148 -0.72571,-0.60986 -1.06945,-0.78984 0.24656,-0.23288 0.71408,-0.0106 1.53648,-0.52624 0.37945,-0.22716 0.53926,-0.69551 0.8356,-1.24021 -0.84383,1.10785 -0.68104,1.1261 -0.87553,0.10856 l -0.0324,-0.30607 -0.25613,-0.0686 c -0.0349,-0.0785 -0.0726,-0.27551 -0.10743,-0.62358 -0.0342,-0.34195 -0.0467,-0.55667 -0.0262,-0.67045 0.0204,-0.11377 0.0509,-0.10839 0.0229,-0.0854 l 0.15819,-0.1635 0.0145,-0.22488 c -0.0241,-0.68848 -0.012,-1.41013 0.0566,-2.08949 l 0.0893,-0.84539 c -0.0561,0.23009 -0.11504,0.45344 -0.41322,0.34677 -0.10819,-0.0394 -0.19582,-0.0627 -0.29882,-0.0801 -0.12875,-0.0217 -0.16816,-0.01 -0.25194,0.001 -0.004,-0.0367 0.01,0.0179 0.0114,-0.0426 0.007,-0.24278 0.0308,-0.6557 0.13389,-1.26809 0.1031,-0.61228 0.21555,-1.01802 0.28902,-1.2494 0.0206,-0.0648 -0.006,-0.009 0.0114,-0.0426 0.0747,0.0366 0.10403,0.0632 0.22907,0.0842 0.24031,0.0405 0.40505,0.0192 0.57364,-0.006 l 0.15091,-0.0511 -0.10601,0.56639 c 0.0417,-0.21602 0.24506,-0.52589 0.3069,-0.71845 3e-4,-4.2e-4 0.0612,-0.14321 0.0614,-0.14365 0.19246,-0.55313 0.35832,-1.08302 0.57834,-1.56078 0.003,-0.006 0.0236,-0.009 0.027,-0.0156 8e-5,-9e-5 0.0303,-0.0683 0.0499,-0.10097 l 0.0229,-0.0854 0.0114,-0.0426 0.027,-0.0156 c 10e-6,-4e-5 -0.024,-0.16653 -0.024,-0.16657 -0.005,-0.0242 -0.0135,-0.22561 0.19864,-0.65595 0.16248,-0.32959 0.28483,-0.49893 0.35795,-0.5675 0.0731,-0.0686 0.0749,-0.0309 0.0541,-0.0312 l 0.25194,-0.001 0.154,-0.23325 c 0.78596,-1.25109 1.79016,-2.06774 2.90886,-3.08672 l -1.68939,1.0114 c -0.16764,-0.27636 -0.29423,-0.60363 -0.51562,-0.89309 -0.21897,-0.28626 -0.48438,-0.41574 -0.61857,-0.5089 -0.0316,-0.0219 -0.0151,-0.0401 -0.0312,-0.0541 0.0104,-0.005 0.0329,-0.12859 0.3507,-0.45507 0.35638,-0.36615 0.98381,-0.8922 1.94631,-1.62889 0.96237,-0.7366 1.63688,-1.20807 2.08275,-1.45506 0.42427,-0.23457 0.58318,-0.20627 0.56105,-0.21573 0.009,0.0191 0.0203,0.0231 0.0312,0.0541 0.055,0.15563 0.0899,0.43663 0.30948,0.72344 0.33518,0.43814 0.77656,0.58408 1.05802,0.83253 l -1.99738,1.47794 c 1.68031,-1.0715 3.67153,-1.90834 5.45146,-2.24529 l 0.33313,-0.048 0.0488,-0.35294 c 5e-5,-2.7e-4 -0.0156,-0.023 0.14678,-0.12077 0.16241,-0.0984 0.51562,-0.22933 1.07222,-0.33037 0.8089,-0.14689 1.22279,-0.0618 1.37215,0.002 0.14933,0.0634 0.11883,0.0464 0.1364,0.17385 l 0.0522,0.40288 0.40707,0.0176 c 1.52677,0.0862 3.04679,0.41371 4.48115,0.94908 0.31109,0.0832 -0.23407,0.53207 -0.23407,0.53207 -0.0135,0.28178 0.90085,-0.42785 1.2396,-1.04045 1.11954,1.49423 2.86071,2.13808 3.34367,2.29141 -0.41157,0.57026 -0.52269,1.45034 -0.53566,1.57221 0.10205,0.5339 0.28077,-0.90439 0.59734,-0.77788 1.03684,0.87055 1.98183,1.8942 2.7734,3.05366 0.56312,0.88236 0.95698,2.06371 1.15124,2.61901 0.26006,-0.74887 -0.9382,-2.36114 0.21366,-2.50492 0.4209,-0.13077 0.68525,-0.40603 0.87749,-0.54265 0.084,-0.06 0.15809,-0.0959 0.18944,-0.10937 0.014,0.006 0.27513,0.17967 0.58115,0.81917 0.30613,0.63943 0.67167,1.68671 1.16186,3.2624 0.49021,1.57578 0.77624,2.65017 0.88704,3.3489 0.1108,0.69873 0.0106,0.9983 0.004,1.00777 -0.0331,0.007 -0.1053,0.0146 -0.20923,0.0126 -0.2365,-0.005 -0.59735,-0.0839 -1.01921,0.0472 -1.18145,-0.27312 -1.20869,-1.69662 -1.88225,-3.13516 0.44427,1.6315 0.7351,3.34874 0.68115,4.11729 -0.0313,1.27316 -0.20254,2.52529 -0.54537,3.74289 l -0.17576,0.57057 c -0.36692,0.91495 -0.57981,1.48586 -0.68966,1.80547 -0.13679,0.23426 -0.28956,0.48979 -0.59203,1.09958 l -0.28095,0.45088 c -0.87378,1.40362 -1.96602,2.63139 -3.30531,3.71254 l -1.99431,1.29575 c 1.46092,-0.62632 1.78825,-0.91894 2.19579,0.42823 0.1335,0.28442 0.32112,0.45379 0.44053,0.5756 0.0482,0.0492 0.0687,0.0697 0.0895,0.0927 -0.0188,0.019 -0.0314,0.0343 -0.0927,0.0895 -0.0905,0.0819 -0.23384,0.19297 -0.42882,0.31975 z m 4.19556,-6.60809 c -0.17452,0.0904 -0.43011,-0.089 -0.62889,-0.21426 0.25357,-0.625 0.41865,-1.04799 0.50972,-1.30465 0.18102,-0.33573 0.4708,-0.86146 0.8646,-1.68996 0.13637,0.015 0.56574,0.05 0.62051,0.0748 0.0547,0.0248 0.0403,-0.005 0.0583,0.0385 0.0361,0.0862 0.073,0.57355 -0.38053,1.5909 -0.45445,1.01941 -0.86898,1.41474 -1.04373,1.50471 z m -26.62888,3.50243 c -0.1903,0.19751 -0.54976,0.16064 -1.05159,-0.2589 -0.38002,-0.47881 -0.91539,-1.27301 -1.63531,-2.51995 -0.71992,-1.24693 -1.13842,-2.1048 -1.36469,-2.6762 -0.33939,-1.2746 0.16917,-1.68573 1.12106,-0.68327 0.56159,0.5535 1.01831,1.01377 1.79351,2.35645 0.7752,1.34269 0.79447,1.41186 1.16268,2.57632 0.1841,0.58224 0.16464,1.00806 -0.0256,1.20559 z m 22.65239,-24.30062 c -1.37346,0.0521 -3.38276,-0.95559 -3.40198,-2.3299 -0.003,-0.199 0.28497,-0.33076 0.48295,-0.351 0.60679,-0.062 1.16994,0.4009 1.66732,0.75396 0.53684,0.38105 1.1855,0.79606 1.36191,1.43031 0.0455,0.16335 -0.0913,0.41153 -0.1102,0.49663 z"
       style="font-size:medium;font-style:normal;font-variant:normal;font-weight:normal;font-stretch:normal;text-indent:0;text-align:start;text-decoration:none;line-height:normal;letter-spacing:normal;word-spacing:normal;text-transform:none;direction:ltr;block-progression:tb;writing-mode:lr-tb;text-anchor:start;baseline-shift:baseline;color:#000000;fill:#000000;fill-opacity:0.98823529;stroke:none;stroke-width:1;marker:none;visibility:visible;display:inline;overflow:visible;enable-background:accumulate;font-family:Sans;-inkscape-font-specification:Sans" />
    <path
       transform="matrix(0.46153845,0,0,0.46153845,-453.65727,357.67304)"
       d="m -822.09819,689.95148 c 0,5.12836 -5.79631,9.28571 -12.94643,9.28571 -7.15011,0 -12.94642,-4.15735 -12.94642,-9.28571 0,-5.12836 5.79631,-9.28572 12.94642,-9.28572 7.15012,0 12.94643,4.15736 12.94643,9.28572 z"
       sodipodi:ry="9.2857141"
       sodipodi:rx="12.946428"
       sodipodi:cy="689.95148"
       sodipodi:cx="-835.04462"
       id="path3985"
       style="color:#000000;fill:#ffffff;fill-opacity:0.98823529;fill-rule:evenodd;stroke:none;stroke-width:0.2;marker:none;visibility:visible;display:inline;overflow:visible;enable-background:accumulate"
       sodipodi:type="arc"
       inkscape:export-filename="C:\Users\KHR\Copy\code\MonthlyGames\2014\June\Asteroids\Assets\Sprites\sheet.png"
       inkscape:export-xdpi="626.96002"
       inkscape:export-ydpi="626.96002" />
    <path
       sodipodi:nodetypes="scccsss"
       inkscape:connector-curvature="0"
       id="path4017"
       d="m -829.49197,684.71133 c 18.04809,18.04809 118.70816,62.17971 112.10211,86.83385 l -140.5002,19.14927 -131.25137,53.66634 c -18.04807,-18.04808 47.06029,-106.59723 53.66634,-131.25137 6.60606,-24.65414 -5.50487,-133.89414 19.14927,-140.50019 24.65414,-6.60606 68.78576,94.05402 86.83385,112.1021 z"
       style="color:#000000;fill:none;stroke:#000000;stroke-width:11.74667358000000000;stroke-linecap:square;stroke-linejoin:round;stroke-miterlimit:4;stroke-opacity:1;stroke-dashoffset:0;marker:none;visibility:visible;display:inline;overflow:visible;enable-background:accumulate"
       transform="matrix(0.08243817,0.02197768,-0.02208924,0.08202182,-790.50211,649.03296)"
       inkscape:export-filename="C:\Users\KHR\Copy\code\MonthlyGames\2014\June\Asteroids\Assets\Sprites\sheet.png"
       inkscape:export-xdpi="626.96002"
       inkscape:export-ydpi="626.96002" />
  </g>
</svg>
